<?xml version="1.0" encoding="UTF-8"?>
<svg id="Layer_2" data-name="Layer 2" xmlns="http://www.w3.org/2000/svg" viewBox="0 0 100 100">
  <defs>
    <style>
      .cls-1 {
        fill: #7ed5ea;
      }
    </style>
  </defs>
  <g>
    <path class="cls-1" d="m25.7,40.84c-2.65-.79-2.27-4.66.49-4.92l6.2-.58c-.47,1.66-.71,3.41-.71,5.22,0,.71.04,1.42.11,2.11l-6.09-1.83Z"/>
    <path class="cls-1" d="m34.14,50.07l-6.54.69c-2.76.3-3.89-3.43-1.44-4.73l5.68-2.99c.32,2.53,1.12,4.9,2.3,7.03Z"/>
    <path class="cls-1" d="m29.86,26.6l6,1.88c-1.5,1.9-2.65,4.09-3.36,6.47l-4.97-3.98c-2.17-1.74-.33-5.2,2.33-4.37Z"/>
    <path class="cls-1" d="m32.65,22.72c-1.42-2.43,1.61-4.99,3.77-3.21l4.8,3.95-1.14-6.33c-.5-2.79,3.27-4.15,4.67-1.69l3,5.29,1.02-6.08c.47-2.8,4.49-2.8,4.96,0l1.02,6.08,3-5.29c1.4-2.46,5.17-1.1,4.67,1.69l-1.14,6.33,4.8-3.95c2.16-1.78,5.19.78,3.77,3.21l-3.29,5.65c-3.59-4.5-9.11-7.38-15.31-7.38s-11.72,2.88-15.31,7.38l-3.29-5.65Z"/>
    <path class="cls-1" d="m72.77,55.26c1.82,2.13-.66,5.19-3.12,3.85l-5.56-3.03,2.27,6.19c.97,2.65-2.49,4.65-4.3,2.48l-3.92-4.69.03,6.28c.02,2.83-3.94,3.53-4.89.85l-2.03-5.75-2.03,5.75c-.95,2.68-4.91,1.98-4.89-.85l.03-6.28-3.92,4.69c-1.81,2.17-5.27.17-4.3-2.48l2.27-6.19-5.56,3.03c-2.46,1.34-4.94-1.72-3.12-3.85l4.43-5.16c3.35,5.99,9.74,10.04,17.09,10.04s13.74-4.05,17.09-10.04l4.43,5.16Z"/>
    <path class="cls-1" d="m66.64,28.48l6-1.88c2.66-.83,4.5,2.63,2.33,4.37l-4.97,3.98c-.71-2.38-1.86-4.57-3.36-6.47Z"/>
    <path class="cls-1" d="m74.9,50.76l-6.54-.69c1.18-2.13,1.98-4.5,2.3-7.03l5.68,2.99c2.45,1.3,1.32,5.03-1.44,4.73Z"/>
    <path class="cls-1" d="m76.8,40.84l-6.09,1.83c.07-.69.11-1.4.11-2.11,0-1.81-.24-3.56-.71-5.22l6.2.58c2.76.26,3.14,4.13.49,4.92Z"/>
    <path class="cls-1" d="m66.05,88.63l-7.3-27.07c2.31,11.64-6.56,10.72-7.48,2.86-.74,7.48-10.07,9.15-7.67-2.4l-7.67,26.24s7.94-13.49,15.52-13.49c8.13,0,14.6,13.86,14.6,13.86Z"/>
  </g>
  <path class="cls-1" d="m51.01,42.67l.48.14-.43.23c-.02-.12-.03-.24-.05-.37Z"/>
  <path class="cls-1" d="m51.09,34.95l.42.34-.53.05c.03-.13.07-.26.11-.39Z"/>
  <path class="cls-1" d="m51.22,50.07h.05s-.03.03-.03.03c0-.01,0-.02-.02-.03Z"/>
  <path class="cls-1" d="m51.24,28.37l.1.17-.18-.06s.05-.08.08-.11Z"/>
  <path class="cls-1" d="m51.26,28.37s.06.07.08.11l-.18.06.1-.17Z"/>
  <path class="cls-1" d="m51.22,50.06h.05s-.01.03-.02.04l-.03-.04Z"/>
  <path class="cls-1" d="m51.4,34.95c.04.13.08.26.11.39l-.53-.05.42-.34Z"/>
  <path class="cls-1" d="m51.49,42.67c-.02.13-.03.25-.05.37l-.43-.23.48-.14Z"/>
</svg>