<?xml version="1.0" encoding="UTF-8"?>
<svg id="Layer_2" data-name="Layer 2" xmlns="http://www.w3.org/2000/svg" viewBox="0 0 100 100">
  <defs>
    <style>
      .cls-1 {
        fill: #7ed5ea;
      }
    </style>
  </defs>
  <path class="cls-1" d="m55.19,14.19s-26.42,8.25-26.78,8.38c-9.32,3.15.45,9.6,12.95,13.46,10.78,3.32,19.05,1.4,26.6-.07,6.44-1.25,14.8-6.21,14.8-6.21l-17.4-11.68,23.57,11.82-31.17,14.99-35.99-12.2s-15.24-6.29-12.95-7.09l46.36-11.38Z"/>
  <path class="cls-1" d="m20.3,35.94s-1.64,14.8,1.89,19.34c4.51,5.77,27.79,13.97,43.49,3.66,9.01-5.91,6.73-18.58,6.73-18.58,0,0,1.52,12.23-10.4,14.92-18.38,4.14-30.7.48-35.9-8.44-3.35-5.74-5.82-10.9-5.82-10.9Z"/>
  <path class="cls-1" d="m86.36,36.27s4.34,16.47.33,14.53c-2.8-1.35-.33-14.53-.33-14.53Z"/>
  <g>
    <path class="cls-1" d="m72.68,55.32l20.04,1.62-14.12,10.59-59.67-3.82-5.78-.37,5.18-4.95-10.29,4.83-3.38,1.98.2,17.04,5.94.43,69.7,3.55s-65.38-4.58-67.89-8.26c-4.35-6.37-.6-12.31-.6-12.31l67.91,4.98,17.53-13.78-24.77-1.53Z"/>
    <path class="cls-1" d="m97.59,61.04l-.14,7.75-15.05,15.04s3.75-10.75,10.24-15.85c2.62-2.06,4.95-6.94,4.95-6.94Z"/>
    <path class="cls-1" d="m80.07,72l.42,13.43s-.31-6.03-4.17-9.7c-.82-.78-18.19-5.05-18.19-5.05l21.94,1.32Z"/>
  </g>
  <path class="cls-1" d="m80.07,75.71l.42,11.09s-.31-4.98-4.17-8.01c-.82-.65-18.19-4.17-18.19-4.17l21.94,1.09Z"/>
  <path class="cls-1" d="m80.07,78.79l.42,7.44s-.31-3.34-4.17-5.37c-.82-.43-18.19-2.8-18.19-2.8l21.94.73Z"/>
</svg>