<?xml version="1.0" encoding="UTF-8"?>
<svg id="Layer_2" data-name="Layer 2" xmlns="http://www.w3.org/2000/svg" viewBox="0 0 100 100">
  <defs>
    <style>
      .cls-1 {
        fill: #7ed5ea;
      }
    </style>
  </defs>
  <g>
    <path class="cls-1" d="m25.67,41.81l-11.13-11.33,16.16-2.33,33.88,32.85,3.28,3.18-10.46,2.9,13.51-.27,3.47-.07,11.96-15.09-3.34-3.31L42.78,10.77s36.84,36.34,35.78,40.81c-1.85,7.75-8.36,11.12-8.36,11.12L32.09,24.77l-20.52,3.46,14.1,13.59Z"/>
    <path class="cls-1" d="m14.45,24.48l5.58-6.75,19.89-5.79s-9.92,7.6-17.51,8.88c-3.07.52-7.95,3.65-7.95,3.65Z"/>
    <path class="cls-1" d="m32.96,23.49l9.26-12.02s-4.08,5.46-4.32,10.59c-.05,1.1,7.58,13.42,7.58,13.42l-12.52-12Z"/>
  </g>
  <g>
    <path class="cls-1" d="m37.66,43.79c-1.54-.33-2.71-.51-2.71-.51-1.29,1.4-2.13,2.92-2.15,4.66,0,0,2.9.09,5.14.99,1.27-1.86-.28-5.14-.28-5.14Z"/>
    <path class="cls-1" d="m47.49,49.12c-1.17-1.05-2.09-1.79-2.09-1.79-1.82.57-3.3,1.47-4.19,2.96,0,0,2.46,1.53,3.95,3.42,2.03-.98,2.33-4.59,2.33-4.59Z"/>
    <path class="cls-1" d="m53.34,58.65c-.49-1.5-.92-2.6-.92-2.6-1.86-.42-3.59-.38-5.11.47,0,0,1.37,2.56,1.71,4.94,2.24.17,4.31-2.81,4.31-2.81Z"/>
    <path class="cls-1" d="m53.64,69.83c.33-1.54.51-2.71.51-2.71-1.4-1.29-2.92-2.13-4.66-2.15,0,0-.09,2.9-.99,5.14,1.86,1.27,5.14-.28,5.14-.28Z"/>
    <path class="cls-1" d="m48.31,79.67c1.05-1.17,1.79-2.09,1.79-2.09-.57-1.82-1.47-3.3-2.96-4.19,0,0-1.53,2.46-3.42,3.95.98,2.03,4.59,2.33,4.59,2.33Z"/>
    <path class="cls-1" d="m38.78,85.52c1.5-.49,2.6-.92,2.6-.92.42-1.86.38-3.59-.47-5.11,0,0-2.56,1.37-4.94,1.71-.17,2.24,2.81,4.31,2.81,4.31Z"/>
    <path class="cls-1" d="m27.6,85.81c1.54.33,2.71.51,2.71.51,1.29-1.4,2.13-2.92,2.15-4.66,0,0-2.9-.09-5.14-.99-1.27,1.86.28,5.14.28,5.14Z"/>
    <path class="cls-1" d="m17.76,80.48c1.17,1.05,2.09,1.79,2.09,1.79,1.82-.57,3.3-1.47,4.19-2.96,0,0-2.46-1.53-3.95-3.42-2.03.98-2.33,4.59-2.33,4.59Z"/>
    <path class="cls-1" d="m11.91,70.95c.49,1.5.92,2.6.92,2.6,1.86.42,3.59.38,5.11-.47,0,0-1.37-2.56-1.71-4.94-2.24-.17-4.31,2.81-4.31,2.81Z"/>
    <path class="cls-1" d="m11.62,59.77c-.33,1.54-.51,2.71-.51,2.71,1.4,1.29,2.92,2.13,4.66,2.15,0,0,.09-2.9.99-5.14-1.86-1.27-5.14.28-5.14.28Z"/>
    <path class="cls-1" d="m16.95,49.94c-1.05,1.17-1.79,2.09-1.79,2.09.57,1.82,1.47,3.3,2.96,4.19,0,0,1.53-2.46,3.42-3.95-.98-2.03-4.59-2.33-4.59-2.33Z"/>
    <path class="cls-1" d="m26.48,44.09c-1.5.49-2.6.92-2.6.92-.42,1.86-.38,3.59.47,5.11,0,0,2.56-1.37,4.94-1.71.17-2.24-2.81-4.31-2.81-4.31Z"/>
    <path class="cls-1" d="m17.96,61.54c-1.8,8.1,3.3,16.13,11.4,17.93,8.1,1.8,16.13-3.3,17.93-11.4,1.66-7.44-2.51-14.82-9.48-17.37-.62-.23-1.26-.41-1.92-.56-8.1-1.8-16.13,3.3-17.93,11.4Zm6.25,1.39c1.03-4.65,5.64-7.58,10.29-6.54.38.09.75.19,1.1.32,3.99,1.46,6.39,5.7,5.44,9.97-1.03,4.65-5.64,7.58-10.29,6.54s-7.58-5.64-6.54-10.29Z"/>
  </g>
</svg>