<?xml version="1.0" encoding="UTF-8"?>
<svg id="Layer_2" data-name="Layer 2" xmlns="http://www.w3.org/2000/svg" viewBox="0 0 100 100">
  <defs>
    <style>
      .cls-1 {
        fill: #7ed5ea;
      }
    </style>
  </defs>
  <path class="cls-1" d="m55.82,64.39c1.51-.34,2.99-.6,4.42-1.02,5.54-1.6,8.5-5.43,9.33-11.03.34-2.32.47-4.64-.1-6.95-.45-1.83-1.24-3.48-2.43-4.92-.29-.35-.33-.63-.21-1.05.74-2.53.52-5.03-.37-7.48-.08-.22-.48-.48-.7-.45-.96.11-1.97.16-2.83.54-1.6.69-3.11,1.61-4.67,2.39-.31.16-.75.26-1.08.18-4.81-1.17-9.6-1.18-14.4,0-.33.08-.79,0-1.07-.19-1.9-1.2-3.83-2.33-6.06-2.81-1.86-.4-2.08-.28-2.54,1.52-.55,2.14-.61,4.28.03,6.43.07.23,0,.61-.15.8-2.53,3.05-3.17,6.61-2.77,10.42.15,1.46.41,2.94.83,4.34,1.28,4.25,4.21,6.92,8.39,8.21,1.49.46,3.04.74,4.55,1.09-.33.58-.74,1.21-1.07,1.87-.2.41-.38.86-.42,1.31-.07.79-.5,1.11-1.22,1.33-3.38,1.04-5.91.15-7.8-2.84-1.05-1.66-2.32-3.01-4.33-3.41-.5-.1-1.06-.04-1.56.07-.54.11-.65.51-.3.93.26.32.57.62.91.84,1.52.97,2.51,2.37,3.2,4,.6,1.41,1.26,2.77,2.52,3.74,2.02,1.56,4.33,1.82,6.77,1.56.48-.05.95-.14,1.5-.22,0,1.95.06,3.84-.02,5.73-.04.95-1.14,1.42-2.24.99-1.42-.55-2.85-1.1-4.18-1.84-8.94-4.95-14.45-12.47-16.23-22.52-1.78-10.02.66-19.05,7.28-26.81,5.12-6.01,11.69-9.52,19.55-10.5,14.1-1.76,27.27,6.58,32.38,19.59,5.17,13.17,1.48,27.76-9.28,36.75-2.74,2.29-5.8,4.02-9.17,5.22-.4.14-.86.22-1.28.19-.75-.05-1.15-.5-1.24-1.25-.04-.3-.03-.6-.03-.9.01-2.64.05-5.27.04-7.91-.01-2.17-.4-4.23-1.95-5.94Z"/>
</svg>