<?xml version="1.0" encoding="utf-8"?>
<!-- Generator: Adobe Adobe Illustrator 24.2.0, SVG Export Plug-In . SVG Version: 6.00 Build 0)  -->
<svg version="1.1" id="Layer_1" xmlns="http://www.w3.org/2000/svg" xmlns:xlink="http://www.w3.org/1999/xlink" x="0px" y="0px"
	 viewBox="0 0 256 256" style="enable-background:new 0 0 256 256;" xml:space="preserve">
<style type="text/css">
	.st0{fill:#706F6F;}
</style>
<path class="st0" d="M218.69,172.6c-1.81-3.08-5.98-5.65-8.41-8.2c-7.57-7.94-14-17.11-11.91-28.75c0.79-4.41-10.87,4.67-11.43,5.16
	c-4.45,3.82-12.26,10.03-13.55,16.37c-1.85,9.08,0.49,17.83,5.18,25.59c1.37,2.26,2.9,4.44,4.49,6.56c-2.65,1.7-5.23,3.52-7.78,5.42
	c-4.37,3.27-8.62,6.74-12.64,10.48c-2.99-4.24-6.91-7.84-10.78-11.38c-6.94-6.35-15.2-11.07-23.94-14.27
	c-9.5-3.47-16.09-1.72-24.2,4.38c-2.31,1.73-4.8,3.72-7.27,5.9c-1.29-4.67-3.02-9.23-5.14-13.62c5.77-9.29,11.72-18.44,17.72-27.57
	c5.51-8.38,11.11-16.59,14.71-26.07c4.57-12.01,5.76-25.75,3.48-38.7c15.33-8.97,28.79-20.37,41.68-32.84
	c2.32-2.24,4.66-4.47,6.99-6.72c-0.37,2.82-0.65,5.62-0.88,8.3c-0.83,9.73-1.64,19.51-1.53,29.29c0.08,7.38,0.41,14.75,1.28,22.06
	c-0.09,0-0.17,0-0.26,0.01c-17.27,0.6-29.78,8.92-43.24,19.32c-4.84,3.74-10.2,8.39-13.28,13.85c-2.28,4.03-0.2,4.44,3.45,2.09
	c4.22-2.7,8.4-5.91,13.14-7.58c6.45-2.27,14.33-3.81,21.02-3.69c5.48,0.1,10.71,1.28,15.71,3.22c4.74,1.83,7.94,4.02,12.37,5.74
	c4.72,1.82,13.59-7.84,16.23-10.35c3.74-3.54,12.55-10.85,12.24-17.04c-0.16-3.21-3.41-6.32-4.67-9.26
	c-4.35-10.16-6.91-21.54-7.86-32.58c-0.9-10.51-0.06-21.08,0.54-31.58c0.53-9.1,0.6-20.87,4.54-29.26c2.69-5.73-4.3-1.51-6.16-0.23
	c-6.02,4.17-11.83,9.73-16.05,15.83c-1.02,1.48-27.13,32.41-33.38,37.73c-5.9,5.03-8.51,8.78-23.66,16.08
	c-0.99-3.36-2.22-6.64-3.71-9.77c-3.51-7.36-9.98-13.13-18.21-12.98c-8.72,0.17-16.76,5.07-24.1,9.42
	c-6.12,3.63-12.03,7.57-17.65,11.93c3.41-7.03,5.55-14.61,8.41-21.89c6.57-16.68,9.47-34.34,13.18-51.86
	c0.92-4.34-10.88,4.7-11.4,5.14c-4.57,3.93-12,9.93-13.51,16.32c-4.09,17.31-7.43,34.96-14,51.5c-2.98,7.51-5.19,15.3-8.79,22.53
	c-2.57,5.17-5.91,10.94-7.19,16.64c-0.4,1.78,1.61,1.07,3.6-0.01c1.24-0.31,2.86-1.39,3.13-1.56c5.47-3.27,10.98-8.7,14.6-14.06
	c1.96-2.9,3.81-5.94,5.63-8.95c0.73-0.55,1.46-1.28,2.08-1.71c5.35-3.66,11.57-7.81,17.72-9.8c16.46-5.33,22.3,12.37,25.47,25.39
	c3.98,16.35,2.28,32.66-5.59,47.48c-2.95,5.55-6.14,10.96-9.36,16.35c-9.02-13.79-21.91-25.28-36.53-32.63
	c-4.53-2.28-14.03,7.97-16.86,10.75c-1,0.98-14.34,15.37-11.56,16.62c16.13,7.22,30.27,19.79,38.43,36.06
	c4.54,9.07,7.31,19.31,8.25,29.44c0.5,5.39,0.37,10.68,0.36,16.08c0,3.99-0.47,9.34,1.86,12.67c3.06,4.38,23.36-18,24.63-21.26
	c4.02-10.37,5.32-20.84,4.47-30.99c1.14,0.29,2.28,0.64,3.45,1.1c5.6,2.21,11.63,5.32,16.5,8.93c4.52,3.35,8.65,7.56,12.51,11.68
	c4.49,4.8,6.49,10.08,9.52,15.75c2.59,4.85,24.27-19.69,25.84-22.31c1.14-1.91,1.5-3.54,1.82-5.69c0.15-0.99,0.32-2.02,0.44-3.02
	c0.16-0.12,0.32-0.24,0.47-0.33c2.24-1.37,4.6-2.4,7.04-3.36c4.93-1.94,9.7-4.1,14.95-4.5c7.29-0.57,13.8-7.45,18.76-12.54
	C213.4,185.49,222,178.24,218.69,172.6z"/>
</svg>
