<?xml version="1.0" encoding="UTF-8"?>
<svg id="Layer_2" data-name="Layer 2" xmlns="http://www.w3.org/2000/svg" viewBox="0 0 100 100">
  <defs>
    <style>
      .cls-1 {
        fill: #7ed5ea;
      }
    </style>
  </defs>
  <g>
    <path class="cls-1" d="m38.11,80.4c-36.04-21.37-6.45-52.65,10.46-31.99,8.83,10.78,1.04,23.41,1.04,23.41,0,0,2.62-9.47-2-17.15-6.73-11.2-21.08-7.84-22.69,4.53-1.37,10.51,13.19,21.21,13.19,21.21Z"/>
    <path class="cls-1" d="m42.48,77.53c5.67-4.43,8.99-1.69,5.6.26-3.39,1.95-12.34,5.52-12.34,5.52l6.74-5.78Z"/>
    <path class="cls-1" d="m44.62,81.42c5.13-3.22,7.72-.87,4.71.5-3.01,1.37-10.84,3.73-10.84,3.73l6.13-4.23Z"/>
    <path class="cls-1" d="m46.65,85.15c5.66-2.49,7.07.15,4.16.86s-10.3,1.64-10.3,1.64l6.14-2.5Z"/>
  </g>
  <g>
    <path class="cls-1" d="m28.27,41.33l-10.39-10.57,15.09-2.18,31.63,30.66,3.06,2.97-9.76,2.71,12.61-.26,3.24-.07,11.16-14.09-3.12-3.09L44.24,12.35s34.39,33.92,33.4,38.09c-1.72,7.24-7.8,10.38-7.8,10.38L34.26,25.42l-19.15,3.23,13.16,12.68Z"/>
    <path class="cls-1" d="m17.79,25.15l5.2-6.3,18.57-5.41s-9.26,7.09-16.35,8.29c-2.86.48-7.42,3.41-7.42,3.41Z"/>
    <path class="cls-1" d="m35.07,24.23l8.64-11.22s-3.81,5.09-4.03,9.89c-.05,1.02,7.07,12.53,7.07,12.53l-11.68-11.2Z"/>
  </g>
</svg>