<?xml version="1.0" encoding="UTF-8"?>
<svg id="Layer_2" data-name="Layer 2" xmlns="http://www.w3.org/2000/svg" viewBox="0 0 100 100">
  <defs>
    <style>
      .cls-1 {
        fill: #7ed5ea;
      }
    </style>
  </defs>
  <path class="cls-1" d="m35.1,37.17c10.79-17.52,28.45-12.33,20.68,1.67-3.42,6.17-3.05,10.36-.02,9.15,1.6-.64,3.3-1.9,6.6-4.89,5.85-5.32,11.17-8.09,19.6-6.49,9.08,1.72,18.58,20.52,2.71,40.33,0,0-17.16,20.2-46.93,1.87,0,0,22.24,12.76,36.61-1.74,7.94-8.01,9.14-39.62-5.47-33.73-6.08,2.45-11.84,11.27-16.83,7.67-6.13-4.41,2.65-14.61-1.82-18.02-7.44-5.67-15.13,4.17-15.13,4.17Z"/>
  <path class="cls-1" d="m75.36,50.72l-42.36,9.19s-1.56-13.57-1.87-17.84-1.48-23.72,14.92-29.27c14.59-4.94,14.23,15.93,14.23,15.93,1.24-8.4,0-22.49,0-22.49l-35.83,6.42,4.5,48.1s-16.61,4.78-20.56,14.67c-4.63,11.56,1.65,18.34,7.9,18.34s14.26-3.54,16.49-14.18c.74-2.45.82-14.79.82-14.79l41.76-14.08Zm-52.89,36.75c-8.91,3.72-9.72-2.64-7.15-8.08,4.2-8.9,11.64-11.56,14.38-12.88,0,0,1.17,17.45-7.23,20.96Z"/>
  <path class="cls-1" d="m65.6,33.96c-7.42-29.78,22.85-36.24,24.16-16.16.68,10.44-12.92,15.66-12.92,15.66,0,0,11.19-4.67,8.53-13.26-1.92-6.2-9.76-9.01-15.12-1.71-.77,1.05,7.58,4.81,7.58,4.81,0,0-10.46-.89-10.65-.41-1.99,4.99-1.59,11.08-1.59,11.08Z"/>
</svg>